<svg width="109" height="81" viewBox="0 0 109 81" fill="none" xmlns="http://www.w3.org/2000/svg">
<path d="M107.835 54.1054C105.482 52.788 103.883 50.9061 102.848 48.3655C101.812 45.8249 100.213 43.5666 97.8604 42.1551C93.9083 39.7086 89.8622 37.2621 85.7219 35.0979C82.0522 33.1218 77.6296 36.227 77.9119 40.4614C77.9119 40.9319 77.9119 41.2141 77.4414 41.4023C75.1831 42.5315 74.148 44.4134 74.2421 46.954C74.2421 47.3304 74.2421 47.5186 73.8658 47.6127C72.172 48.3655 71.137 49.7769 70.5724 51.5648C68.22 50.2474 66.0558 48.9301 63.7974 47.7068C63.2329 47.4245 63.421 47.0481 63.5151 46.5777C64.9266 42.8138 65.9616 38.8617 66.7144 34.9097C67.5613 30.2049 66.9026 25.9705 63.5151 22.3948C63.1388 22.0185 63.2329 21.7362 63.5151 21.3598C64.9266 19.2897 66.2439 17.3136 67.5613 15.2435C67.8436 14.773 68.22 14.6789 68.7845 14.6789C70.5724 14.6789 72.2661 14.6789 74.054 14.6789C75.3713 14.6789 76.1241 14.0202 76.1241 12.797C76.1241 11.6678 75.3713 11.0092 74.054 11.0092C71.8897 11.0092 69.6314 11.0092 67.4672 11.0092C66.4321 11.0092 65.6794 11.3855 65.1148 12.3265C63.6092 14.5848 62.1037 16.8431 60.5981 19.1015C60.2218 19.666 59.9395 19.7601 59.3749 19.4778C54.576 17.4077 49.9652 18.0664 45.9191 21.2657C45.3545 21.7362 45.0722 21.7362 44.5076 21.2657C41.7788 18.9133 38.5795 18.0664 35.0039 18.3487C33.0279 18.5369 31.24 19.1015 29.5463 20.1365C28.7935 20.607 28.4171 21.2657 28.6053 22.1125C28.7935 22.9594 29.3581 23.4299 30.2991 23.524C30.8636 23.524 31.3341 23.2417 31.8987 22.9594C35.7566 20.8893 40.3674 21.8303 43.1903 25.1236C44.6017 26.8174 45.5427 26.7233 47.0482 25.1236C49.5889 22.2066 53.7291 21.0775 57.2107 22.4889C57.8694 22.7712 57.9634 22.9594 57.5871 23.524C56.6461 24.9354 55.7051 26.3469 54.7642 27.7583C54.0114 28.9816 54.1055 30.0167 55.0465 30.6753C55.9874 31.334 57.0225 31.0517 57.8693 29.8285C58.9044 28.3229 59.9395 26.8174 60.9745 25.1236C62.7624 27.2879 63.5151 29.6403 63.2328 32.3691C62.7624 36.7916 61.5391 41.1201 60.0336 45.2603C59.8454 45.919 59.5631 46.2013 58.8103 46.2954C55.611 46.8599 53.635 49.7769 54.2937 52.788C54.3878 53.0703 54.576 53.4467 54.3878 53.6349C54.1055 53.9172 53.635 53.8231 53.3527 53.6349C52.2236 53.0703 51.4708 52.0353 50.8121 51.0943C49.8711 49.6828 49.2125 48.0832 48.3656 46.4836C47.7069 45.1662 46.6719 44.4134 45.0722 44.4134C43.5667 44.4134 42.5316 45.1662 41.7788 46.3895C41.4965 46.954 41.2143 47.5186 40.932 48.0832C40.0851 49.871 39.1441 51.5648 37.6386 52.9762C36.5094 54.0113 35.6626 54.0113 34.5334 53.0703C33.7806 52.5057 33.2161 51.6589 32.7456 50.9061C30.3932 47.1422 28.9817 42.9079 27.9466 38.6735C27.0998 35.0979 26.1588 31.4281 27.4762 27.7583C27.7584 26.8174 27.0998 25.8764 26.1588 25.6882C25.3119 25.4059 24.2769 25.8764 23.9946 26.8174C23.5241 28.0406 23.1477 29.358 23.2418 30.6753C23.43 37.168 25.2178 43.2843 27.7584 49.2124C28.7935 51.6589 30.205 54.0113 32.181 55.7991C34.7216 58.0574 37.6386 58.0574 40.0851 55.7991C41.5906 54.4818 42.7198 52.788 43.6608 51.0002C44.1312 50.1533 44.5076 49.3065 45.0722 48.2714C45.3545 48.9301 45.5427 49.4006 45.825 49.7769C46.9541 52.0353 48.0833 54.1054 49.9652 55.7991C51.9413 57.4929 54.0114 58.0574 56.4579 56.8342C56.9284 56.646 57.2107 56.646 57.5871 56.8342C60.8804 58.7161 64.1738 60.6921 67.4672 62.5741C67.8436 62.8564 68.0318 63.0446 67.9377 63.515C67.3731 66.8084 68.6905 69.5372 71.5133 71.231C73.6776 72.5483 75.9359 73.7716 78.1942 75.0889C82.3344 77.6295 86.6629 78.1 91.1795 76.4063C94.2847 75.2771 97.2958 75.6535 100.119 77.2531C101.53 78.1 102.942 78.9469 104.447 79.6997C105.576 80.3583 106.705 80.076 107.176 79.1351C107.646 78.1941 107.364 77.159 106.329 76.5004C105.2 75.8417 103.977 75.183 102.942 74.5243C98.6132 71.7955 94.0965 71.3251 89.2976 73.1129C86.757 74.0539 84.1223 73.9598 81.6758 72.7365C78.7588 71.231 75.9359 69.5372 73.113 67.8435C72.0779 67.2789 71.6074 66.3379 71.5133 64.9265C73.3953 65.9615 75.089 66.9966 76.7827 67.9376C78.1001 68.6904 79.1352 68.5963 79.7938 67.5612C80.3584 66.5261 79.982 65.5852 78.6647 64.7383C74.5244 62.3859 70.4783 59.9394 66.338 57.587C63.7974 56.1755 61.3509 54.67 58.8103 53.2585C58.0575 52.8821 57.6811 52.2235 57.7752 51.3766C57.8693 50.5297 58.4339 50.0592 59.2808 49.871C59.9395 49.7769 60.41 50.0592 60.9745 50.3415C64.9266 52.5998 68.7845 54.8582 72.7366 57.1165C73.8658 57.7752 74.9008 57.587 75.4654 56.7401C76.1241 55.8932 75.8418 54.8582 74.9008 54.1054C74.0539 53.3526 73.7717 52.4116 74.3362 51.6589C74.9008 50.7179 75.7477 50.7179 76.6887 51.0002C77.8178 51.4707 78.7588 51.1884 79.2293 50.2474C79.6997 49.4006 79.4175 48.5537 78.5706 47.8009C77.7237 47.0481 77.4414 46.1072 78.006 45.3544C78.5706 44.5075 79.4175 44.3193 80.3584 44.6957C81.4876 45.1662 82.4285 44.8839 82.899 44.0371C83.3695 43.1902 83.0872 42.3433 82.2403 41.5905C81.864 41.3083 81.4876 40.9319 81.3935 40.4614C81.2994 39.7086 81.3935 39.144 82.0522 38.6735C82.7108 38.2031 83.4636 38.2031 84.1223 38.6735C87.3216 40.5555 90.4268 42.4374 93.626 44.1311C96.2607 45.5426 98.1427 47.6127 99.3659 50.4356C100.589 53.4467 102.753 55.705 105.576 57.3047C106.8 57.9633 107.835 57.8692 108.399 56.8342C109.434 55.7991 109.058 54.8582 107.835 54.1054Z" fill="#0BB6CE"/>
<path d="M65.5853 69.161C65.2089 69.161 64.8325 69.161 64.4562 69.161C46.2955 69.161 28.0408 69.161 9.88014 69.161C5.92808 69.161 3.66976 66.9026 3.66976 62.9506C3.66976 45.2604 3.66976 27.5703 3.66976 9.88014C3.66976 5.83399 5.83399 3.66976 9.88014 3.66976C26.9116 3.66976 43.9431 3.66976 60.9746 3.66976C61.351 3.66976 61.6332 3.66976 62.0096 3.66976C62.9506 3.57567 63.6093 2.82289 63.6093 1.78783C63.6093 0.658674 62.8565 0 61.351 0C43.9431 0 26.6293 0 9.22147 0C3.95206 0 0 3.95205 0 9.31556C0 27.288 0 45.3545 0 63.327C0 68.7846 3.95205 72.6425 9.31555 72.7366C18.4429 72.7366 27.5703 72.7366 36.6977 72.7366C46.0132 72.7366 55.2347 72.7366 64.5502 72.7366C64.9266 72.7366 65.2089 72.7366 65.5853 72.7366C66.4322 72.6425 67.1849 71.7957 67.1849 70.9488C67.1849 70.0078 66.4322 69.2551 65.5853 69.161Z" fill="#0BB6CE"/>
<path d="M69.4434 3.66976C78.1943 3.66976 86.9453 3.66976 95.6963 3.66976C99.6484 3.66976 101.813 5.92808 101.907 9.88014C101.907 20.3249 101.907 30.8637 101.907 41.3084C101.907 42.8139 102.565 43.6608 103.789 43.6608C104.918 43.6608 105.576 42.8139 105.576 41.4025C105.576 35.9449 105.576 30.4873 105.576 25.0297C105.576 19.7603 105.576 14.4909 105.576 9.22146C105.576 4.04615 101.624 0.0940966 96.355 0C90.1446 0 84.0283 0 77.818 0C74.9951 0 72.1722 0 69.3493 0C68.126 0 67.3732 0.752772 67.3732 1.88193C67.2791 3.01109 68.0319 3.66976 69.4434 3.66976Z" fill="#0BB6CE"/>
<path d="M98.1427 16.0906C98.1427 13.8323 98.1427 11.668 98.1427 9.40972C98.1427 7.90418 97.484 7.3396 95.9785 7.3396C91.3677 7.3396 86.757 7.3396 82.1463 7.3396C80.6407 7.3396 79.9821 7.99828 79.9821 9.40972C79.9821 11.668 79.9821 13.8323 79.9821 16.0906C79.9821 17.5961 80.6407 18.1607 82.1463 18.1607C84.4046 18.1607 86.6629 18.1607 88.9212 18.1607C91.2736 18.1607 93.6261 18.1607 95.9785 18.1607C97.484 18.2548 98.1427 17.5961 98.1427 16.0906ZM91.8382 14.585C90.8972 14.585 90.0504 14.585 89.1094 14.585C87.5098 14.585 85.9101 14.585 84.3105 14.585C83.7459 14.585 83.6518 14.3968 83.6518 13.9264C83.5577 11.0094 83.5577 11.0094 86.4747 11.0094C88.9212 11.0094 91.2736 11.0094 93.7201 11.0094C94.3788 11.0094 94.567 11.1976 94.567 11.8562C94.567 14.585 94.567 14.585 91.8382 14.585Z" fill="#0BB6CE"/>
<path d="M12.7971 19.2898C12.703 20.6071 13.5498 21.454 14.5849 21.3599C15.62 21.3599 16.3727 20.513 16.3727 19.2898C16.3727 17.7842 16.3727 17.7842 17.9724 17.6901C19.1956 17.596 19.9484 16.9373 19.9484 15.8082C19.9484 14.679 19.1956 14.0204 17.8783 13.9263C16.3727 13.8322 16.3727 13.8322 16.3727 12.4207C16.3727 11.1034 15.62 10.3506 14.4908 10.3506C13.3616 10.3506 12.6089 11.1975 12.703 12.5148C12.7971 13.8322 12.4207 14.1144 11.1974 14.0203C9.88008 13.9263 9.0332 14.679 9.0332 15.8082C9.0332 16.9373 9.88008 17.7842 11.1974 17.6901C12.6089 17.596 12.8912 18.0665 12.7971 19.2898Z" fill="#0BB6CE"/>
<path d="M36.6978 29.1699C37.8269 28.9817 38.3915 28.2289 38.3915 27.288C38.3915 26.2529 37.5446 25.5942 36.4155 25.5942C33.3103 25.5942 30.8638 28.2289 30.8638 31.8046C30.8638 32.7456 31.052 33.8747 31.2402 35.0039C31.5224 36.1331 32.4634 36.7917 33.4985 36.5094C34.4394 36.3212 35.004 35.2862 34.8158 34.2511C34.7217 33.4983 34.5335 32.7456 34.4394 31.9928C34.4394 30.205 35.0981 29.3581 36.6978 29.1699Z" fill="#0BB6CE"/>
<path d="M92.6851 23.6183C92.6851 22.5832 91.9323 21.8304 90.709 21.8304C87.7921 21.8304 84.781 21.8304 81.864 21.8304C80.7348 21.8304 79.982 22.4891 79.8879 23.6183C79.8879 24.7474 80.6407 25.5002 81.864 25.5002C83.2754 25.5002 84.781 25.5002 86.1924 25.5002C87.698 25.5002 89.2035 25.5002 90.709 25.5002C92.0264 25.5002 92.7792 24.7474 92.6851 23.6183Z" fill="#0BB6CE"/>
<path d="M12.7971 63.7031C12.7971 64.8323 13.5499 65.4909 14.7731 65.4909C16.2787 65.4909 17.6901 65.4909 19.1956 65.4909C20.6071 65.4909 22.1126 65.4909 23.5241 65.4909C24.7473 65.4909 25.5001 64.7382 25.5001 63.7031C25.5001 62.5739 24.7473 61.9153 23.5241 61.9153C20.6071 61.9153 17.6901 61.9153 14.7731 61.9153C13.4558 61.8212 12.703 62.5739 12.7971 63.7031Z" fill="#0BB6CE"/>
<path d="M89.0153 29.1699C86.6629 29.1699 84.2164 29.1699 81.864 29.1699C80.7348 29.1699 79.9821 29.9227 79.9821 30.9578C79.9821 31.9928 80.7348 32.7456 81.864 32.7456C83.0872 32.7456 84.3105 32.7456 85.5337 32.7456C86.6629 32.7456 87.8862 32.7456 89.0153 32.7456C90.1445 32.7456 90.8972 31.9928 90.8972 30.9578C90.8972 29.9227 90.1445 29.1699 89.0153 29.1699Z" fill="#0BB6CE"/>
<path d="M21.7363 54.576C20.6071 54.576 19.3839 54.576 18.2547 54.576C17.1256 54.576 15.9023 54.576 14.7732 54.576C13.644 54.576 12.8912 55.3288 12.8912 56.3639C12.8912 57.493 13.644 58.2458 14.8673 58.2458C17.2197 58.2458 19.5721 58.2458 21.9245 58.2458C23.0537 58.2458 23.8064 57.493 23.8064 56.458C23.7123 55.3288 22.9596 54.576 21.7363 54.576Z" fill="#0BB6CE"/>
<path d="M10.9151 34.5335C10.821 33.4984 10.0683 32.7456 9.03319 32.8397C8.09222 32.8397 7.33946 33.4984 7.24536 34.5335C7.24536 35.8508 7.24536 37.0741 7.24536 38.3914C7.24536 39.4265 8.09223 40.1793 9.12729 40.0852C10.1624 40.0852 10.821 39.3324 10.9151 38.2973C10.9151 37.7328 10.9151 37.0741 10.9151 36.5095C10.9151 35.7567 11.0092 35.1921 10.9151 34.5335Z" fill="#0BB6CE"/>
<path d="M21.0777 10.4447C22.0187 10.4447 22.9597 9.5037 22.9597 8.56274C22.9597 7.52767 22.0187 6.7749 20.9837 6.7749C19.9486 6.869 19.2899 7.62177 19.2899 8.65683C19.2899 9.6919 20.1368 10.4447 21.0777 10.4447Z" fill="#0BB6CE"/>
<path d="M25.5001 17.7841C26.5352 17.7841 27.2879 16.9373 27.2879 15.8081C27.2879 14.773 26.4411 14.0203 25.406 14.0203C24.3709 14.0203 23.6182 14.773 23.6182 15.8081C23.6182 16.8432 24.465 17.7841 25.5001 17.7841Z" fill="#0BB6CE"/>
<path d="M36.4153 11.0094C36.4153 12.0444 37.2621 12.7972 38.2972 12.7972C39.3323 12.7972 40.085 12.0444 40.085 11.0094C40.085 9.97431 39.3323 9.12744 38.2031 9.12744C37.0739 9.12744 36.3212 9.97431 36.4153 11.0094Z" fill="#0BB6CE"/>
<path d="M43.6608 11.0093C43.6608 12.0443 44.5076 12.8912 45.5427 12.7971C46.5778 12.7971 47.3305 11.9502 47.3305 11.0093C47.3305 9.9742 46.5778 9.22142 45.5427 9.22142C44.4135 9.12733 43.6608 9.8801 43.6608 11.0093Z" fill="#0BB6CE"/>
<path d="M50.9062 10.9153C50.9062 11.9503 51.659 12.7031 52.6941 12.7031C53.7292 12.7031 54.576 11.9503 54.576 10.9153C54.576 9.88021 53.8232 9.12744 52.7882 9.12744C51.7531 9.12744 50.9062 9.88021 50.9062 10.9153Z" fill="#0BB6CE"/>
</svg>
