<svg width="70" height="71" viewBox="0 0 70 71" fill="none" xmlns="http://www.w3.org/2000/svg">
<g clip-path="url(#clip0_4_1559)">
<path d="M50.5836 35.2471C50.6464 26.5757 43.7344 19.2867 35.0002 18.9097C31.4185 18.7212 28.0254 19.7894 25.2606 21.6117C22.4958 19.7894 19.1026 18.7212 15.521 18.9097C6.9124 19.2239 -0.0624149 26.5129 0.00042126 35.2471C0.00042126 38.0119 1.44565 43.1645 5.15299 45.1124C5.02732 48.0029 4.46179 57.7425 10.6197 64.5916C13.0703 67.3564 17.406 67.4193 19.9195 64.7173C20.862 63.7119 21.6789 62.3295 22.0559 60.5701C22.4958 58.7479 22.9356 56.0459 23.3127 53.1554C23.6268 50.8933 26.8943 50.8933 27.2085 53.1554C27.6483 55.9831 28.0882 58.685 28.4652 60.5701C28.8422 62.3924 29.6591 63.7119 30.6017 64.7173C33.1151 67.4193 37.4508 67.3564 39.9014 64.5916C46.0594 57.8053 45.4938 48.0029 45.3682 45.1124C49.0127 43.353 50.5836 38.0119 50.5836 35.2471ZM10.117 26.2616C8.92316 27.2669 7.91778 28.4608 7.10091 29.8432C5.96986 31.854 5.3415 34.1161 5.3415 36.3782C5.3415 37.0694 4.77597 37.6349 4.02194 37.6349C3.2679 37.6349 2.70238 37.0694 2.70238 36.3154C2.70238 33.6134 3.45641 30.8486 4.77597 28.5237C5.71852 26.8899 6.9124 25.4447 8.35764 24.188C8.92316 23.7481 9.74003 23.811 10.1799 24.3765C10.7454 25.0048 10.6826 25.8217 10.117 26.2616ZM12.9447 24.2508L12.6933 24.3765C12.5048 24.5021 12.3163 24.5022 12.065 24.5022C11.6251 24.5022 11.1224 24.2508 10.9339 23.811C10.6197 23.1826 10.8711 22.3657 11.4994 22.0515L11.7508 21.9259C12.3792 21.6117 13.196 21.863 13.5102 22.4914C13.8244 23.1198 13.573 23.9366 12.9447 24.2508Z" fill="white"/>
<path d="M38.4562 3.7663C28.1511 3.7663 18.977 8.73035 13.2589 16.3335C13.9501 16.2079 14.7041 16.145 15.4582 16.0822C15.7095 16.0822 16.0237 16.0822 16.275 16.0822C17.0291 16.0822 17.7831 16.145 18.5372 16.2079C18.6628 16.0822 18.8513 15.8937 18.977 15.768C24.1924 10.5526 31.1044 7.72498 38.4562 7.72498C41.4095 7.72498 44.3 8.16483 47.0648 9.10737C47.5675 9.10737 50.6464 9.10737 50.6464 9.10737C50.6464 9.10737 50.6464 6.34258 50.6464 6.21691C46.9391 4.646 42.7919 3.7663 38.4562 3.7663Z" fill="white"/>
<path d="M67.298 22.4915C66.167 22.4915 64.219 22.4915 64.219 22.4915C64.219 22.4915 64.219 25.1306 64.219 25.5076C65.3501 28.5866 65.9785 31.854 65.9785 35.1844C65.9785 42.5362 63.088 49.4482 57.9354 54.6636C54.3538 58.2452 49.8924 60.7587 45.1169 61.8897C44.3 63.4607 43.2946 64.9687 41.975 66.3511C41.9122 66.414 41.8494 66.4768 41.8494 66.5396C57.6841 64.843 70 51.4589 70 35.2472C69.9371 30.723 68.9946 26.3873 67.298 22.4915Z" fill="white"/>
<path d="M66.5438 11.6837H61.5169V6.65678C61.5169 5.71424 60.7629 4.96021 59.8204 4.96021H55.0448C54.1023 4.96021 53.3482 5.71424 53.3482 6.65678V11.6837H48.3213C47.3788 11.6837 46.6248 12.4377 46.6248 13.3803V18.1558C46.6248 19.0983 47.3788 19.8524 48.3213 19.8524H53.3482V24.8793C53.3482 25.8218 54.1023 26.5759 55.0448 26.5759H59.8204C60.7629 26.5759 61.5169 25.8218 61.5169 24.8793V19.8524H66.5438C67.4864 19.8524 68.2404 19.0983 68.2404 18.1558V13.3803C68.2404 12.4377 67.4864 11.6837 66.5438 11.6837ZM56.0502 10.9925C56.0502 11.4323 55.736 11.7465 55.2962 11.7465C54.8563 11.7465 54.5421 11.4323 54.5421 10.9925V9.17023C54.5421 8.73038 54.8563 8.4162 55.2962 8.4162C55.736 8.4162 56.0502 8.73038 56.0502 9.17023V10.9925ZM56.0502 6.97096C56.0502 7.34798 55.736 7.725 55.2962 7.725C54.8563 7.725 54.5421 7.41082 54.5421 6.97096V6.78245C54.5421 6.3426 54.8563 6.02842 55.2962 6.02842C55.736 6.02842 56.0502 6.3426 56.0502 6.78245V6.97096Z" fill="white"/>
</g>
<defs>
<clipPath id="clip0_4_1559">
<rect width="70" height="70" fill="white" transform="translate(0 0.849609)"/>
</clipPath>
</defs>
</svg>
